<?xml version="1.0" standalone="no"?>
<!DOCTYPE svg PUBLIC "-//W3C//DTD SVG 20010904//EN"
 "http://www.w3.org/TR/2001/REC-SVG-20010904/DTD/svg10.dtd">
<svg version="1.0" xmlns="http://www.w3.org/2000/svg"
 width="300.000000pt" height="400.000000pt" viewBox="0 0 300.000000 400.000000"
 preserveAspectRatio="xMidYMid meet">
<metadata>
Created by potrace 1.10, written by Peter Selinger 2001-2011
</metadata>
<g transform="translate(0.000000,400.000000) scale(0.100000,-0.100000)"
fill="#000000" stroke="none">
<path d="M1005 3122 c-81 -35 -115 -56 -115 -70 0 -9 -6 -12 -16 -8 -16 6 -70
-42 -110 -99 -26 -37 -48 -101 -39 -115 3 -5 1 -10 -4 -10 -15 0 -14 -33 2
-49 7 -9 7 -11 1 -8 -18 10 -24 -17 -24 -111 0 -64 3 -83 11 -72 8 11 12 12
16 3 7 -18 23 -16 23 2 0 8 -7 15 -15 15 -9 0 -15 9 -15 25 0 25 1 25 30 10
27 -14 29 -14 23 2 -5 13 -3 15 12 9 18 -6 18 -6 2 12 -24 26 -21 33 11 27 22
-5 24 -4 10 4 -14 9 -29 10 -68 1 -3 0 3 -5 13 -11 21 -12 22 -29 2 -29 -8 0
-15 5 -15 11 0 5 -4 7 -10 4 -5 -3 -10 1 -10 9 0 8 4 17 10 21 5 3 6 13 3 23
-6 15 -5 16 12 2 10 -8 16 -10 12 -4 -4 7 2 14 13 17 21 5 28 37 9 37 -6 0 -9
-7 -5 -15 4 -10 -1 -15 -14 -15 -13 0 -20 7 -20 20 0 11 5 20 10 20 6 0 10 5
10 10 0 6 -6 9 -12 8 -7 -2 -11 4 -9 12 2 8 6 30 9 48 5 39 21 44 16 5 -2 -16
-1 -20 2 -10 3 9 9 17 14 17 12 0 21 -16 13 -24 -4 -4 -8 -12 -9 -19 -1 -7 -5
-20 -9 -29 -4 -11 -3 -18 4 -18 10 0 15 15 14 46 0 6 9 17 21 24 19 12 20 11
8 -3 -9 -10 -10 -17 -2 -22 5 -3 13 2 17 12 7 19 28 43 37 43 3 0 6 -7 6 -15
0 -8 7 -15 15 -15 8 0 15 8 15 18 0 21 -38 24 -62 5 -19 -17 -30 -5 -17 18 6
13 6 19 -1 19 -5 0 -10 7 -10 15 0 8 -5 15 -11 15 -5 0 -7 -4 -4 -10 10 -16
14 -70 6 -70 -5 0 -16 11 -27 24 -10 14 -23 22 -28 18 -6 -3 -5 2 3 12 11 13
16 14 23 4 6 -9 8 -5 6 12 -2 20 1 24 17 22 16 -2 17 -1 5 7 -8 5 -11 13 -7
17 3 4 14 1 23 -7 15 -12 16 -11 9 11 -7 21 -5 23 6 13 11 -8 17 -7 29 5 13
14 12 15 -2 10 -12 -5 -15 -2 -10 14 2 11 8 16 11 11 19 -26 91 20 91 58 0 11
3 11 10 -1 8 -13 11 -13 19 -1 17 26 121 53 121 32 0 -6 -9 -8 -20 -6 -11 2
-18 0 -15 -5 3 -5 -3 -18 -15 -30 -11 -11 -15 -20 -10 -20 6 0 22 11 36 25 33
33 60 35 43 3 -12 -22 -11 -22 8 -5 24 21 53 22 53 2 0 -8 -5 -15 -12 -15 -6
0 -9 -2 -6 -5 12 -12 38 8 33 25 -3 11 0 20 10 24 26 9 17 26 -15 26 -20 0
-30 -5 -30 -15 0 -8 -7 -15 -15 -15 -8 0 -15 7 -15 15 0 21 -83 19 -135 -3z"/>
<path d="M1240 3114 c0 -8 -4 -12 -10 -9 -5 3 -10 1 -10 -4 0 -6 6 -11 13 -11
7 0 23 -9 35 -20 l22 -21 0 21 c0 20 1 20 16 6 8 -9 27 -19 41 -22 18 -5 21
-9 11 -15 -10 -7 -9 -9 4 -9 23 0 34 -20 17 -32 -10 -7 -8 -8 8 -3 25 7 42
-13 22 -26 -10 -6 -10 -9 -2 -9 9 0 7 -6 -4 -20 -9 -11 -20 -16 -23 -11 -3 5
-16 12 -30 16 l-25 9 25 6 25 6 -27 6 c-21 4 -28 1 -29 -11 0 -10 -4 -7 -11 9
-6 14 -10 29 -9 33 1 5 -3 6 -8 3 -5 -3 -7 -14 -4 -24 3 -13 -2 -18 -24 -20
-23 -1 -25 0 -10 9 9 5 17 14 17 18 0 10 -69 6 -78 -5 -4 -4 5 -4 20 0 23 5
25 3 21 -14 -3 -11 -9 -20 -14 -20 -5 0 -9 -3 -9 -7 0 -5 31 -7 70 -6 38 1 72
-2 75 -7 3 -6 -2 -8 -12 -5 -10 3 0 -4 22 -15 22 -11 47 -20 56 -20 33 0 79
-65 119 -168 28 -73 27 -87 -5 -66 -13 8 -32 14 -42 11 -15 -3 -13 -6 9 -15
15 -6 32 -21 38 -33 8 -14 8 -19 1 -15 -6 4 -24 -3 -41 -15 -34 -25 -23 -43
17 -28 20 7 25 5 35 -19 12 -30 13 -88 4 -172 -3 -30 -8 -84 -11 -120 -7 -78
-87 -310 -108 -310 -4 0 -6 -4 -3 -9 3 -4 -3 -16 -14 -26 -13 -12 -20 -31 -20
-55 0 -37 0 -37 -57 -50 -116 -27 -228 -23 -236 8 -4 16 -5 16 -6 0 -1 -22
-20 -23 -28 -2 -3 8 -16 20 -29 25 -16 5 -24 17 -24 31 0 17 -3 19 -9 9 -7
-10 -13 -11 -30 -2 -11 7 -21 16 -21 21 0 6 -6 10 -12 10 -7 0 -26 12 -43 26
-16 14 -24 23 -17 19 26 -13 10 15 -18 32 -16 9 -30 21 -30 26 0 4 -4 5 -10 2
-5 -3 -10 1 -10 10 0 8 -4 23 -9 33 -5 9 -14 28 -20 42 -11 25 -11 25 -7 -5 7
-51 33 -109 55 -123 12 -8 21 -20 21 -26 0 -6 21 -24 45 -41 25 -16 45 -33 45
-37 0 -5 4 -8 10 -8 5 0 31 -15 57 -33 76 -54 138 -74 219 -72 69 1 144 25
144 45 0 6 5 10 11 10 8 0 10 -22 6 -73 -4 -58 -12 -84 -35 -123 -39 -62 -72
-81 -170 -99 -105 -18 -214 -5 -297 35 -71 34 -99 62 -154 154 l-41 69 26 34
c28 37 20 43 -19 13 -20 -16 -24 -27 -22 -55 5 -53 14 -73 36 -80 10 -4 19
-11 19 -16 0 -5 19 -30 43 -56 26 -29 34 -42 20 -35 -33 18 -41 14 -13 -5 14
-10 28 -17 33 -15 4 1 7 -3 7 -9 0 -6 7 -9 15 -5 8 3 14 0 12 -6 -1 -6 4 -13
12 -16 8 -2 11 0 8 5 -3 5 26 -2 65 -15 70 -23 78 -24 286 -21 17 0 32 4 32 8
0 5 17 7 38 7 52 -3 74 10 67 37 -5 17 -4 19 4 7 6 -8 11 -13 12 -10 0 3 2 13
4 23 2 10 -3 17 -12 17 -11 0 -8 8 11 31 29 34 35 52 38 124 3 46 5 50 28 50
14 1 41 -8 60 -18 l35 -19 -39 38 c-22 20 -31 34 -20 29 10 -4 42 -9 69 -12
28 -2 69 -8 92 -13 23 -6 49 -7 57 -4 9 3 16 1 16 -5 0 -7 24 -11 65 -11 51 0
63 -3 59 -14 -3 -8 -1 -23 5 -34 5 -10 13 -32 16 -48 3 -16 7 -34 8 -39 2 -6
12 -20 25 -33 12 -12 19 -28 16 -37 -4 -10 0 -15 11 -15 15 0 17 7 11 47 -3
26 -12 50 -18 54 -7 5 -9 11 -5 15 4 4 2 13 -3 19 -8 9 -6 14 5 19 26 9 17 26
-15 26 -19 0 -30 5 -30 14 0 11 6 12 36 1 38 -13 76 -53 89 -95 4 -14 17 -45
28 -70 45 -99 87 -256 87 -325 0 -16 5 -37 10 -45 28 -43 -1 187 -35 281 -62
171 -67 192 -41 170 11 -10 47 -109 75 -211 l10 -35 -2 40 c0 22 -7 54 -14 72
-20 50 -16 50 32 3 24 -24 47 -56 50 -72 7 -28 25 -49 25 -27 0 7 11 -1 25
-17 14 -16 25 -37 25 -48 0 -10 11 -27 25 -38 34 -26 55 -105 55 -205 0 -51 4
-83 10 -83 7 0 8 31 4 93 l-7 92 21 -21 c11 -12 30 -40 41 -63 12 -22 25 -41
30 -41 5 0 20 -17 32 -37 13 -21 34 -52 48 -70 37 -47 34 -71 -11 -115 -22
-21 -44 -38 -49 -38 -5 0 -9 -4 -9 -10 0 -5 -4 -10 -9 -10 -11 0 -91 -79 -91
-90 0 -4 -9 -10 -20 -13 -11 -3 -20 -13 -20 -22 0 -10 -5 -14 -12 -11 -7 3
-21 9 -30 12 -10 4 -18 10 -18 15 0 5 -8 9 -17 9 -10 0 -25 5 -33 11 -12 8 -9
9 10 4 21 -5 22 -4 8 5 -10 6 -18 22 -18 35 0 13 -4 27 -10 30 -13 8 -13 100
0 144 16 56 22 171 9 171 -7 0 -9 11 -6 30 4 17 0 40 -8 57 -8 15 -15 43 -15
61 0 18 -7 49 -15 69 -8 19 -15 56 -16 82 l-1 46 -9 -35 c-6 -26 -2 -69 17
-163 13 -70 26 -160 27 -200 2 -89 -12 -217 -24 -217 -5 0 -9 3 -9 8 0 4 -18
31 -41 60 -32 44 -41 64 -44 106 -7 99 -26 186 -41 186 -13 0 -19 -14 -14 -35
1 -5 11 -50 21 -100 l18 -90 -26 -27 c-15 -16 -34 -28 -44 -28 -12 0 -16 -6
-12 -20 3 -11 10 -23 16 -27 6 -4 7 -1 2 7 -5 9 -4 11 3 6 9 -5 8 -15 -3 -37
-12 -22 -13 -29 -3 -29 20 0 98 -76 98 -94 0 -44 36 -120 76 -163 24 -25 44
-56 44 -67 0 -12 9 -36 20 -54 16 -26 24 -31 34 -23 16 13 27 4 19 -15 -3 -8
0 -14 6 -14 24 0 9 -22 -24 -36 -19 -8 -35 -16 -35 -18 0 -7 95 15 104 24 19
19 25 10 21 -28 -2 -20 -4 -54 -4 -74 -1 -31 -7 -40 -36 -58 -35 -21 -39 -40
-9 -40 21 0 50 35 75 90 11 25 27 60 35 78 19 41 32 34 30 -16 -1 -25 -21 -78
-54 -144 -29 -57 -52 -111 -52 -120 0 -9 -7 -24 -16 -32 -14 -15 -14 -16 5
-16 15 0 21 6 21 21 0 11 4 17 10 14 5 -3 17 11 26 32 33 75 38 83 51 83 7 0
13 5 13 12 0 6 8 20 18 31 16 19 16 20 -5 8 -12 -6 -24 -11 -27 -11 -9 0 6 65
16 68 4 2 8 12 8 23 0 10 5 19 11 19 6 0 8 -7 5 -16 -7 -19 12 -47 25 -38 5 3
9 -4 9 -15 0 -13 5 -18 13 -15 17 6 41 -21 32 -36 -10 -15 -23 -12 -28 7 -3
10 -5 -3 -6 -29 -1 -45 -12 -61 -26 -38 -11 17 -25 11 -25 -10 0 -18 -3 -19
-20 -10 -27 14 -25 4 4 -23 64 -59 86 -76 86 -68 0 6 -4 13 -10 16 -5 3 -10
13 -10 20 0 11 6 12 26 5 16 -7 23 -7 19 0 -3 6 -13 10 -21 10 -19 0 -18 34 1
50 8 7 15 25 15 40 0 15 7 33 15 40 13 11 15 8 15 -18 0 -17 4 -33 9 -36 5 -3
12 -35 16 -71 7 -67 17 -82 30 -43 l8 23 4 -22 c2 -13 9 -23 15 -23 6 0 8 9 4
22 -4 13 -10 57 -15 99 -9 87 -14 99 -42 99 -36 0 -118 65 -142 111 -28 56
-65 78 -106 63 -25 -10 -30 -9 -34 6 -2 10 -22 26 -43 36 -47 22 -54 30 -54
70 0 33 -33 84 -54 84 -18 0 -44 51 -57 111 -16 74 -33 105 -67 117 -23 8 -31
18 -36 46 -4 21 -2 45 4 57 12 21 12 21 46 -12 19 -18 34 -38 34 -44 0 -7 13
-32 30 -56 16 -24 30 -56 30 -72 0 -24 8 -31 73 -61 59 -27 84 -47 141 -110
38 -43 96 -101 130 -128 74 -62 84 -75 112 -153 23 -61 33 -56 13 6 -27 85
-38 99 -129 176 -54 46 -175 172 -175 182 0 4 48 51 107 105 172 154 184 179
127 248 -19 24 -55 72 -79 108 -24 36 -65 92 -90 125 -26 33 -65 92 -87 130
-23 39 -75 108 -118 155 -201 223 -192 215 -242 228 -26 7 -61 15 -78 17 -16
2 -52 9 -80 15 -27 6 -86 15 -130 20 -187 20 -233 28 -241 41 -3 6 10 34 29
63 55 83 97 172 117 250 34 135 26 512 -14 642 -42 136 -155 279 -252 320 -43
18 -54 18 -54 -2z m1144 -2791 c-12 -26 -18 -33 -21 -21 -5 19 28 89 34 71 2
-6 -4 -28 -13 -50z m236 -133 c0 -5 3 -15 6 -24 10 -27 -12 -18 -24 9 -15 33
-15 36 3 29 8 -4 15 -10 15 -14z"/>
<path d="M964 3033 c-10 -10 -21 -18 -25 -18 -4 0 -11 -4 -16 -9 -5 -5 -3 -6
5 -2 8 5 12 1 12 -11 0 -14 3 -12 13 7 8 14 18 24 24 23 5 -1 10 5 10 13 0 18
-2 18 -23 -3z"/>
<path d="M1147 3014 c-14 -19 -16 -28 -7 -39 8 -10 8 -15 -1 -21 -8 -4 -9 -3
-5 4 5 8 -1 12 -14 12 -12 0 -18 -4 -15 -10 3 -6 -1 -7 -9 -4 -9 3 -16 1 -16
-4 0 -30 79 -24 81 6 1 11 4 8 9 -8 6 -17 7 -7 4 30 -3 30 -7 56 -7 57 -1 0
-10 -10 -20 -23z"/>
<path d="M1009 2997 c-17 -19 -19 -19 -19 -3 0 15 -2 16 -15 2 -8 -8 -15 -22
-15 -30 0 -9 -4 -16 -10 -16 -5 0 -9 -5 -7 -11 1 -6 -4 -14 -11 -16 -11 -4
-12 -1 -2 17 16 30 3 39 -17 11 -12 -18 -17 -20 -24 -10 -7 11 -9 10 -9 -3 0
-9 -5 -20 -12 -24 -8 -5 -9 -1 -4 12 6 15 5 17 -5 7 -10 -10 -10 -16 -1 -25 7
-7 12 -8 12 -2 0 5 4 4 8 -2 12 -19 92 21 92 46 0 11 3 19 8 18 13 -4 52 13
52 23 0 5 9 9 21 9 15 0 19 -5 15 -15 -6 -18 -1 -19 25 -5 10 6 19 18 19 28 0
15 -2 15 -10 2 -6 -9 -13 -11 -17 -5 -14 17 -54 13 -74 -8z"/>
<path d="M1040 2960 c0 -8 -10 -10 -25 -8 -14 3 -28 1 -32 -5 -3 -6 -1 -7 5
-3 7 4 12 2 12 -3 0 -6 -6 -11 -12 -11 -9 0 -8 -4 2 -10 22 -14 33 -12 26 6
-5 13 -1 15 24 12 34 -5 36 -3 15 18 -10 10 -15 11 -15 4z"/>
<path d="M860 2814 c0 -8 -6 -14 -12 -14 -9 0 -8 -3 2 -9 19 -13 31 -4 23 17
-6 14 -4 15 9 4 13 -10 17 -10 21 1 4 10 -2 15 -19 15 -14 0 -24 -6 -24 -14z"/>
<path d="M966 2627 c-16 -12 -15 -13 10 -12 15 0 29 6 32 13 5 16 -19 16 -42
-1z"/>
<path d="M749 2603 c20 -25 20 -27 4 -45 -9 -10 -19 -15 -22 -10 -8 12 -71 24
-71 13 0 -11 62 -41 71 -35 4 2 11 -6 14 -17 7 -21 8 -21 17 -4 7 12 7 20 -2
25 -7 4 -8 9 -2 11 20 8 22 46 3 67 -26 31 -37 27 -12 -5z"/>
<path d="M635 2539 c-7 -20 -9 -47 -6 -99 l3 -45 15 69 c10 48 11 72 4 79 -7
7 -12 6 -16 -4z"/>
<path d="M945 2515 l-30 -15 30 5 c74 14 122 16 145 7 20 -9 13 -10 -40 -10
-37 0 -81 -7 -100 -15 -29 -13 -31 -15 -12 -16 12 -1 35 -9 50 -18 l27 -17
-19 22 c-16 19 -17 22 -3 28 23 9 60 1 65 -14 3 -11 0 -12 -17 -3 -27 15 -29
-7 -3 -30 17 -15 20 -15 30 2 7 10 12 26 12 34 0 19 5 19 41 -2 38 -22 37 -28
-7 -30 -44 -2 -51 -8 -34 -28 12 -14 15 -14 32 2 11 10 22 17 24 16 2 -2 13
-3 24 -3 14 0 18 5 13 16 -4 12 0 15 18 12 15 -2 25 2 27 13 2 12 -5 16 -28
16 -18 0 -35 4 -38 10 -23 34 -150 45 -207 18z"/>
<path d="M1437 2514 c-3 -3 -23 -12 -44 -19 -21 -8 -37 -19 -35 -26 2 -7 0
-19 -4 -28 -6 -13 -8 -12 -13 6 -4 15 -10 20 -19 15 -9 -7 -9 -20 4 -63 10
-30 18 -61 19 -70 2 -23 52 -81 60 -69 7 11 -22 71 -39 82 -7 5 -4 8 7 8 21 0
21 9 2 34 -21 27 -19 35 8 29 20 -4 21 -3 3 7 -15 10 -16 14 -5 21 21 13 26
11 33 -15 10 -42 94 -50 120 -11 9 13 16 26 16 28 0 12 -94 28 -132 23 l-43
-6 39 16 c36 16 42 16 82 1 58 -21 56 -7 -1 21 -51 25 -49 24 -58 16z m69 -69
c19 -15 19 -15 0 -30 -31 -24 -47 -19 -36 9 5 13 6 27 3 30 -13 13 14 5 33 -9z"/>
<path d="M664 2436 c-10 -42 -1 -71 24 -74 12 -2 22 -7 22 -11 0 -4 6 -15 13
-26 10 -12 16 -14 21 -7 4 7 -5 23 -20 37 -26 24 -27 28 -16 59 16 44 16 46
-13 46 -18 0 -26 -7 -31 -24z"/>
<path d="M736 2284 c-4 -11 -13 -14 -31 -10 -30 8 -32 1 -5 -14 24 -13 60 3
60 25 0 20 -16 19 -24 -1z"/>
<path d="M1176 2204 c-8 -21 1 -31 15 -17 6 6 28 9 48 6 34 -4 35 -4 17 11
-26 21 -72 21 -80 0z"/>
<path d="M1342 2188 c-33 -20 -33 -21 -12 -35 12 -8 19 -21 16 -29 -3 -9 1
-14 12 -14 19 0 72 -42 72 -57 0 -14 -102 -16 -110 -3 -5 8 -9 7 -13 -4 -6
-16 10 -20 76 -19 9 0 17 -5 17 -10 0 -5 7 -4 15 3 8 6 18 10 22 7 12 -7 10
46 -2 61 -5 7 -20 23 -33 35 -12 11 -20 27 -18 33 3 7 -3 14 -12 16 -13 3 -10
8 13 21 24 13 26 16 10 16 -11 0 -35 -10 -53 -21z"/>
<path d="M2196 2146 c2 -48 12 -72 24 -59 9 9 -9 103 -20 103 -3 0 -5 -20 -4
-44z"/>
<path d="M1250 2131 c0 -20 19 -31 51 -31 18 0 18 1 1 18 -29 29 -52 35 -52
13z"/>
<path d="M1080 2046 c-6 -6 -10 -21 -10 -35 l0 -26 18 23 c17 21 25 23 103 22
107 -2 103 -2 87 13 -16 16 -183 18 -198 3z"/>
<path d="M1200 1950 c0 -15 122 -16 163 -1 10 4 -22 8 -72 9 -56 1 -91 -2 -91
-8z"/>
<path d="M1550 1760 c14 -11 30 -20 36 -20 6 0 26 -21 44 -47 18 -27 38 -52
44 -58 7 -5 24 -31 39 -58 16 -26 32 -45 36 -42 5 3 12 -6 15 -19 7 -30 92
-106 117 -106 26 0 13 28 -14 32 -12 2 -28 17 -37 33 -8 17 -21 34 -27 38 -7
4 -13 14 -13 21 0 6 -20 32 -45 55 -25 24 -52 56 -60 71 -8 16 -26 37 -40 48
-15 12 -21 23 -15 27 5 3 10 3 10 -1 0 -3 7 -1 16 7 13 10 19 8 41 -15 22 -24
31 -28 66 -23 22 3 47 13 56 21 14 15 12 16 -19 16 -26 0 -31 -3 -20 -10 9 -6
10 -10 3 -10 -6 0 -15 5 -18 11 -4 6 -13 8 -19 6 -7 -3 -33 4 -57 15 -24 11
-71 22 -104 24 l-60 4 25 -20z"/>
<path d="M605 1740 c-62 -39 -63 -47 -16 -96 11 -12 18 -24 15 -27 -3 -2 4
-26 14 -53 11 -27 28 -85 38 -129 l19 -80 5 75 c3 41 8 82 11 90 2 9 -2 14
-11 13 -10 -2 -16 5 -17 18 -1 12 -9 29 -17 38 -9 10 -13 21 -9 24 3 4 1 7 -5
7 -7 0 -11 6 -9 13 1 6 -4 11 -10 10 -7 -2 -13 6 -13 17 0 11 -7 20 -15 20
-25 0 2 49 28 50 5 0 6 -4 3 -9 -11 -18 28 -91 48 -91 12 0 6 29 -7 37 -19 11
-29 67 -14 82 17 17 -4 12 -38 -9z"/>
<path d="M192 1680 c-11 -10 -23 -16 -26 -13 -3 4 -6 -2 -6 -12 0 -15 3 -16
12 -7 7 7 27 12 45 12 25 0 33 4 33 18 0 24 -33 25 -58 2z"/>
<path d="M390 1681 c-49 -26 -161 -78 -212 -98 -49 -19 -91 -44 -84 -50 2 -2
19 5 37 16 19 12 48 21 64 22 37 1 67 12 65 24 -1 5 4 11 11 14 7 2 9 -1 5 -8
-4 -6 -3 -11 2 -11 6 0 12 6 15 13 3 8 26 23 50 35 25 12 48 26 52 32 13 22
20 8 18 -40 -1 -27 2 -52 7 -55 5 -3 7 -12 4 -19 -3 -8 -1 -17 4 -20 6 -3 8
-15 5 -26 -3 -11 0 -20 6 -20 6 0 11 -9 11 -19 0 -21 13 -34 24 -24 3 3 1 12
-5 19 -19 23 -2 44 36 44 45 0 46 -21 4 -51 -17 -12 -27 -24 -21 -28 5 -3 9
-13 10 -21 0 -8 10 -46 22 -85 11 -39 22 -109 24 -157 3 -48 6 -91 9 -95 2 -4
3 -17 1 -28 -7 -33 -1 -180 7 -180 1 0 3 -11 4 -25 7 -72 29 -186 36 -195 5
-5 9 -25 10 -45 1 -31 2 -32 8 -10 9 30 7 162 -3 178 -4 7 -2 12 3 12 6 0 11
9 11 21 0 11 4 18 8 15 4 -2 8 4 8 14 0 17 -2 18 -16 5 -9 -8 -23 -15 -30 -15
-8 0 -3 8 10 20 23 20 23 20 2 20 -12 0 -22 6 -22 13 0 6 -5 53 -11 102 -6 50
-12 137 -13 195 -2 58 -11 140 -20 183 -14 63 -15 82 -5 94 11 13 15 12 30 -9
10 -12 20 -20 23 -18 12 13 -14 82 -38 101 -14 11 -24 25 -21 30 4 5 -1 9 -9
9 -9 0 -16 -4 -16 -10 0 -21 -25 -9 -38 18 -12 25 -10 29 28 64 22 20 40 41
40 46 0 11 -48 22 -89 22 -14 0 -42 -9 -61 -19z"/>
<path d="M1602 1655 c-10 -12 -8 -17 12 -30 14 -10 27 -30 30 -50 4 -19 11
-35 15 -35 5 0 17 -33 26 -72 10 -40 23 -78 30 -83 18 -15 47 -153 40 -187 -4
-16 -2 -28 4 -28 13 0 18 57 8 100 -5 19 -11 46 -14 59 -10 41 15 14 49 -52
17 -34 33 -78 35 -97 2 -19 8 -37 12 -40 4 -3 11 -18 15 -35 9 -38 54 -135 62
-135 3 0 2 15 -2 33 -4 17 -8 39 -9 47 -1 8 -4 22 -7 30 -3 8 -11 33 -18 55
-18 57 -78 181 -113 233 -16 24 -44 78 -62 121 -26 62 -92 182 -98 181 -1 -1
-8 -7 -15 -15z"/>
<path d="M1776 1644 c-4 -10 2 -14 19 -14 14 0 25 6 25 13 0 18 -37 19 -44 1z"/>
<path d="M87 1643 c-13 -13 -7 -25 7 -14 7 6 20 9 29 5 8 -3 18 -1 22 5 7 12
-47 16 -58 4z"/>
<path d="M536 1634 c-3 -9 -1 -35 6 -58 l13 -41 5 45 c6 48 3 70 -10 70 -4 0
-11 -7 -14 -16z"/>
<path d="M683 1604 c1 -19 7 -30 13 -27 11 4 38 -17 46 -35 15 -35 172 -116
243 -124 17 -1 33 -10 37 -18 5 -12 7 -12 7 2 1 15 5 15 33 6 24 -9 33 -8 36
0 2 7 8 12 13 12 6 0 8 -4 5 -8 -2 -4 4 -8 15 -8 10 0 19 6 19 13 0 10 -14 12
-47 10 -27 -2 -64 0 -84 4 -68 16 -195 69 -226 97 -68 60 -93 80 -94 74 0 -4
-4 2 -9 13 -7 16 -8 14 -7 -11z"/>
<path d="M313 1568 c1 -8 -20 -15 -62 -20 -35 -4 -66 -10 -69 -13 -5 -5 45 -9
63 -5 6 1 26 4 45 6 19 1 36 7 38 13 2 6 8 11 14 11 5 0 6 -9 3 -20 -4 -11 -2
-20 4 -20 6 0 11 9 11 20 0 11 5 20 10 20 6 0 10 5 10 10 0 6 -16 10 -35 10
-22 0 -34 -4 -32 -12z"/>
<path d="M1485 1553 c10 -55 20 -81 39 -108 12 -16 26 -39 32 -50 37 -70 91
-165 109 -195 12 -19 39 -66 60 -105 78 -144 233 -350 250 -333 4 4 -15 37
-42 73 -26 37 -52 74 -58 83 -5 10 -15 20 -21 24 -7 4 -15 20 -19 35 -3 15
-13 32 -22 38 -9 7 -24 43 -34 81 -15 58 -18 63 -19 34 -1 -34 -2 -34 -12 -10
-30 71 -87 178 -92 172 -3 -3 -6 4 -6 16 0 12 -6 22 -12 22 -10 0 -9 3 1 9 10
7 9 11 -6 22 -26 20 -93 104 -93 118 0 11 -49 91 -56 91 -1 0 -1 -8 1 -17z"/>
<path d="M71 1507 c-23 -13 -44 -28 -44 -33 -3 -16 59 -16 72 0 7 8 19 12 27
9 10 -4 14 2 14 21 0 32 -13 33 -69 3z"/>
<path d="M185 1483 c2 -10 4 -22 4 -27 1 -14 31 15 31 30 0 8 -9 14 -19 14
-13 0 -18 -6 -16 -17z"/>
<path d="M234 1484 c3 -7 10 -32 16 -56 13 -47 49 -118 61 -118 4 0 20 -10 36
-23 15 -13 44 -32 63 -43 44 -24 50 -32 50 -71 0 -19 9 -42 23 -56 l22 -25 -3
56 c-1 31 -7 61 -12 66 -6 6 -10 18 -10 27 0 10 -9 20 -19 24 -16 5 -19 12
-14 39 3 22 -1 42 -12 59 -20 31 -89 69 -110 61 -22 -9 -8 -24 23 -24 15 0 37
-11 49 -24 19 -19 21 -29 14 -54 -8 -25 -6 -32 7 -35 12 -3 11 -5 -5 -6 -12 0
-23 4 -25 10 -2 7 -24 20 -48 29 -38 15 -46 23 -54 54 -7 31 -5 40 10 51 18
14 18 14 -1 15 -21 0 -49 35 -41 49 3 4 -2 8 -10 8 -8 0 -13 -6 -10 -13z"/>
<path d="M722 1458 c2 -27 0 -48 -4 -48 -22 0 0 -146 25 -172 7 -7 21 -24 30
-38 l17 -24 0 26 c0 15 -11 53 -25 84 -16 36 -22 61 -16 68 15 18 4 117 -14
135 -16 15 -17 12 -13 -31z"/>
<path d="M1770 1430 c7 -14 27 -47 45 -75 17 -27 55 -95 85 -150 91 -171 110
-202 110 -183 0 6 -46 114 -61 140 -5 10 -9 28 -9 40 0 12 -3 18 -7 15 -6 -6
-53 54 -53 68 0 3 -18 30 -40 60 -22 30 -40 57 -40 60 0 3 -10 16 -21 28 l-21
22 12 -25z"/>
<path d="M780 1408 c0 -21 5 -38 10 -38 13 0 13 40 0 60 -7 11 -10 5 -10 -22z"/>
<path d="M1440 1421 c0 -5 5 -13 10 -16 6 -3 17 -19 25 -35 12 -24 13 -34 4
-49 -10 -15 -9 -25 7 -51 19 -34 49 -58 58 -49 10 9 -6 49 -19 49 -18 0 -23
18 -18 55 3 21 -3 41 -19 64 -23 35 -48 51 -48 32z"/>
<path d="M4 1405 c-9 -23 2 -31 83 -60 43 -15 89 -38 103 -50 14 -12 33 -25
43 -28 30 -11 -34 61 -67 75 -17 7 -39 20 -51 31 -11 10 -28 26 -39 35 -18 16
-18 16 -12 -5 5 -14 3 -23 -3 -23 -6 0 -11 6 -11 14 0 19 -40 28 -46 11z"/>
<path d="M870 1409 c0 -5 4 -17 9 -27 6 -9 17 -42 26 -72 25 -83 36 -110 45
-105 13 8 21 -26 10 -40 -8 -9 -6 -14 5 -19 8 -3 15 -12 15 -20 0 -8 4 -17 9
-20 5 -4 7 3 4 14 -3 11 -9 23 -14 26 -5 3 -9 10 -9 15 0 6 5 7 10 4 16 -10
12 10 -15 63 -14 28 -25 58 -25 68 -1 11 -7 30 -15 44 -8 14 -14 35 -15 46 0
13 -8 24 -20 27 -11 3 -20 1 -20 -4z"/>
<path d="M1390 1419 c0 -11 49 -103 50 -94 0 6 5 3 10 -5 8 -13 10 -12 10 3 0
10 -7 20 -15 23 -8 4 -15 13 -15 20 0 8 -9 24 -20 36 -11 12 -20 20 -20 17z"/>
<path d="M962 1345 c21 -28 39 -44 49 -41 9 2 24 -1 34 -6 13 -8 16 -7 13 3
-2 7 -13 17 -23 23 -11 6 -24 16 -30 22 -14 16 -58 44 -68 44 -4 0 7 -20 25
-45z"/>
<path d="M1220 1380 c-35 -7 -32 -14 5 -11 13 1 27 -9 38 -29 15 -24 21 -28
32 -17 12 10 11 14 -5 29 -11 9 -20 21 -20 27 0 6 -3 10 -7 10 -5 -1 -24 -5
-43 -9z"/>
<path d="M590 1373 c0 -7 5 -24 12 -40 6 -15 14 -53 18 -83 l7 -55 2 51 c0 28
-4 66 -10 85 -13 37 -29 61 -29 42z"/>
<path d="M840 1360 c-6 -10 -15 -78 -22 -150 -6 -71 -15 -130 -20 -130 -4 0
-8 8 -8 19 0 10 -6 24 -14 30 -8 6 -23 34 -35 61 -12 28 -23 50 -25 50 -6 0
10 -56 33 -120 10 -30 24 -98 31 -150 6 -52 19 -133 29 -179 21 -94 25 -219 9
-239 -6 -7 -8 -16 -4 -19 4 -4 11 -2 15 6 5 7 12 12 17 12 15 -2 8 266 -8 275
-11 7 -10 34 2 34 6 0 15 -11 22 -25 6 -13 15 -22 20 -19 5 3 4 12 -2 19 -6 8
-10 22 -8 32 3 17 -1 18 -33 11 -6 -2 -12 16 -14 42 -3 54 4 92 16 84 5 -3 9
1 9 8 0 8 -10 19 -22 24 -13 6 -18 9 -12 8 5 -1 11 14 11 33 1 38 10 54 21 36
4 -6 8 52 9 128 1 77 0 139 -2 139 -3 0 -9 -9 -15 -20z"/>
<path d="M1330 1330 c0 -16 5 -30 11 -30 6 0 9 -9 6 -20 -3 -11 -1 -20 4 -20
5 0 9 -6 9 -14 0 -8 7 -16 15 -20 9 -3 15 0 15 9 0 18 -47 125 -54 125 -4 0
-6 -13 -6 -30z"/>
<path d="M239 1317 c19 -20 38 -34 43 -31 12 8 -4 25 -44 48 l-33 19 34 -36z"/>
<path d="M1205 1308 c4 -24 13 -50 21 -59 8 -8 14 -26 15 -40 1 -18 3 -16 9
11 5 21 5 36 -1 38 -5 2 -7 7 -4 12 5 8 -32 80 -41 80 -3 0 -2 -19 1 -42z"/>
<path d="M1130 1315 c0 -8 -5 -15 -11 -15 -15 0 -5 -101 16 -185 9 -32 18 -84
20 -114 3 -31 9 -67 14 -81 5 -14 13 -38 17 -55 4 -16 8 -34 10 -40 2 -5 12
-68 24 -140 12 -71 25 -139 30 -150 5 -11 8 -32 6 -47 -2 -15 0 -27 3 -26 20
2 30 -4 34 -19 2 -10 2 -7 0 7 -2 14 -6 36 -8 50 -2 14 -4 25 -5 25 -1 0 -3
10 -6 22 -2 14 2 23 14 26 16 4 16 5 0 6 -17 1 -21 11 -32 76 -3 17 -9 49 -14
72 -6 29 -6 46 2 54 8 9 8 10 -1 5 -10 -5 -13 7 -14 48 -1 31 -3 61 -4 66 -1
6 -3 22 -4 36 0 14 -5 22 -11 19 -6 -4 -10 13 -10 44 0 28 -3 51 -7 51 -5 0
-9 10 -9 23 -1 12 -11 56 -23 97 -14 51 -19 89 -15 118 4 28 3 42 -5 42 -6 0
-11 -7 -11 -15z"/>
<path d="M70 1291 c0 -13 50 -60 71 -66 10 -4 19 -11 19 -17 0 -5 18 -31 41
-56 59 -67 78 -109 105 -227 l7 -30 8 30 c17 59 -38 183 -118 266 -25 26 -33
43 -29 56 5 15 -1 23 -21 33 -16 8 -32 16 -38 19 -5 3 3 -10 18 -28 15 -19 26
-36 23 -38 -8 -8 -65 40 -65 55 -1 13 -21 17 -21 3z"/>
<path d="M300 1264 c0 -25 11 -53 34 -88 18 -28 39 -69 47 -91 7 -22 19 -47
26 -56 7 -8 13 -26 13 -40 0 -13 5 -31 10 -39 7 -11 10 -2 10 32 0 60 -30 139
-71 191 -25 31 -29 41 -18 48 10 6 8 9 -8 9 -19 0 -23 6 -23 29 0 17 -4 33
-10 36 -6 4 -10 -9 -10 -31z"/>
<path d="M209 1239 c-9 -5 -10 -9 -2 -9 36 0 113 -143 137 -252 19 -84 19 -54
2 55 -15 87 -60 200 -81 199 -6 0 -17 4 -26 8 -8 5 -22 4 -30 -1z"/>
<path d="M1410 1242 c0 -9 55 -52 65 -52 4 0 -6 14 -22 30 -28 30 -43 37 -43
22z"/>
<path d="M2296 1228 c-3 -7 -4 -20 -3 -28 0 -9 -3 -28 -7 -43 -4 -16 -2 -27 4
-27 5 0 10 12 11 28 0 15 2 39 4 55 4 27 -2 37 -9 15z"/>
<path d="M416 1196 c15 -19 30 -33 32 -31 7 7 -19 45 -39 56 -18 9 -17 5 7
-25z"/>
<path d="M686 1215 c14 -48 15 -73 5 -79 -6 -4 -11 -13 -11 -19 0 -7 7 -3 15
7 18 24 18 42 -1 81 -8 17 -12 21 -8 10z"/>
<path d="M54 1212 c5 -9 1 -15 -13 -19 -28 -7 -26 -14 12 -39 18 -11 31 -25
30 -30 0 -5 25 -31 57 -59 66 -57 110 -131 130 -217 7 -31 19 -59 27 -62 14
-6 11 23 -9 76 -5 15 -7 31 -4 36 3 5 -1 15 -9 22 -8 7 -13 16 -10 20 3 5 1
11 -4 15 -6 3 -8 12 -4 20 3 8 0 15 -7 15 -6 0 -9 4 -6 8 9 15 -40 94 -93 147
-30 30 -58 55 -63 55 -14 0 -9 -16 13 -36 85 -78 123 -124 104 -124 -6 0 -62
57 -98 100 -15 17 -30 31 -34 30 -4 0 -8 9 -8 20 0 10 -5 23 -9 27 -5 4 -6 2
-2 -5z"/>
<path d="M1600 1217 c0 -9 54 -122 78 -161 9 -17 30 -42 45 -58 15 -16 25 -33
22 -38 -3 -6 1 -10 10 -10 17 0 18 -2 -35 80 -16 25 -43 70 -61 100 -41 70
-59 96 -59 87z"/>
<path d="M1284 1195 c1 -8 12 -27 24 -42 17 -21 22 -24 22 -10 0 20 -28 67
-40 67 -5 0 -7 -7 -6 -15z"/>
<path d="M2088 1141 c-10 -25 -12 -44 -6 -55 5 -9 6 -26 2 -39 -5 -16 -3 -19
5 -11 11 10 28 144 18 144 -2 0 -11 -17 -19 -39z"/>
<path d="M1559 1123 c5 -10 11 -32 14 -50 3 -17 10 -39 16 -50 8 -14 10 -8 11
34 0 34 -5 57 -16 67 -21 22 -37 21 -25 -1z"/>
<path d="M0 1116 c0 -9 3 -16 8 -16 10 0 81 -69 121 -119 41 -50 50 -47 23 6
-21 40 -65 84 -119 122 -27 18 -33 20 -33 7z"/>
<path d="M950 1085 c0 -8 5 -15 10 -15 6 0 10 -9 10 -21 0 -11 4 -18 9 -15 12
8 1 54 -15 60 -8 3 -14 -1 -14 -9z"/>
<path d="M1260 1083 c0 -21 27 -64 47 -76 7 -4 13 -16 13 -25 0 -18 34 -45 44
-35 3 3 -3 12 -14 20 -11 8 -20 21 -20 29 0 8 -5 14 -11 14 -5 0 -8 4 -5 8 3
5 -4 15 -15 22 -10 8 -19 22 -19 32 0 9 -4 20 -10 23 -5 3 -10 -2 -10 -12z"/>
<path d="M3 1043 c3 -25 55 -82 75 -83 6 0 12 -6 12 -14 0 -15 66 -86 81 -86
4 0 13 -8 18 -17 6 -10 11 -13 11 -8 0 23 -62 95 -82 95 -4 0 -16 16 -25 35
-9 19 -23 35 -30 35 -8 0 -18 10 -23 23 -5 12 -9 18 -9 13 -1 -6 -8 -1 -16 10
-14 18 -15 18 -12 -3z"/>
<path d="M186 960 c7 -50 11 -60 25 -60 14 0 10 21 -11 65 l-20 40 6 -45z"/>
<path d="M2 968 c5 -15 78 -67 93 -67 6 0 -10 17 -35 39 -45 41 -65 50 -58 28z"/>
<path d="M475 908 c4 -24 8 -64 9 -90 1 -27 4 -48 9 -48 12 0 8 -28 -5 -32 -7
-3 -2 -7 11 -11 25 -6 25 -2 7 118 -13 89 -17 105 -28 105 -7 0 -8 -14 -3 -42z"/>
<path d="M1048 904 c-8 -8 4 -54 13 -54 17 0 21 29 6 44 -8 8 -17 13 -19 10z"/>
<path d="M2606 888 c7 -23 38 -70 62 -96 7 -8 24 -30 39 -50 15 -21 40 -49 55
-65 16 -15 28 -29 28 -31 0 -2 18 -22 40 -44 22 -22 40 -37 40 -34 0 3 10 -8
23 -24 34 -46 97 -96 97 -77 0 8 -120 144 -142 161 -14 10 -172 203 -217 263
-19 26 -34 24 -25 -3z"/>
<path d="M0 880 c0 -19 12 -24 49 -22 8 0 26 -8 39 -19 14 -11 28 -17 31 -13
9 8 -51 54 -71 54 -9 0 -20 5 -23 10 -10 17 -25 11 -25 -10z"/>
<path d="M153 815 c-9 -17 -6 -24 18 -46 16 -15 32 -23 35 -18 6 11 -13 49
-26 49 -5 0 -10 8 -12 18 -4 15 -5 15 -15 -3z"/>
<path d="M700 820 c0 -6 5 -20 10 -31 8 -15 7 -19 -5 -19 -8 0 -15 -3 -16 -7
0 -5 -2 -21 -5 -38 -12 -88 -12 -105 6 -105 12 0 17 9 17 33 1 61 11 114 30
149 2 4 -6 12 -17 18 -14 8 -20 8 -20 0z"/>
<path d="M1523 813 c-18 -6 -16 -33 1 -33 15 0 30 27 18 33 -4 3 -13 2 -19 0z"/>
<path d="M1861 793 c1 -10 5 -31 9 -48 7 -28 8 -28 9 12 0 23 -3 45 -9 48 -5
3 -9 -2 -9 -12z"/>
<path d="M990 764 c0 -13 48 -59 55 -52 3 2 -9 17 -25 33 -17 16 -30 24 -30
19z"/>
<path d="M1954 678 c-22 -29 -49 -57 -62 -63 -12 -5 -22 -14 -22 -20 0 -13
-65 -65 -81 -65 -6 0 -9 -6 -6 -14 3 -8 -3 -22 -13 -31 -21 -19 -46 -73 -37
-81 3 -3 15 0 27 6 12 7 30 10 41 7 10 -3 18 -2 17 2 -2 20 5 26 34 28 18 1
36 9 40 18 6 9 23 15 48 15 31 0 38 3 34 15 -4 9 0 15 8 15 8 0 23 9 33 20 10
11 20 18 24 16 3 -2 12 3 20 12 13 14 11 15 -20 8 -19 -3 -46 -15 -61 -26 -15
-11 -33 -20 -39 -20 -7 0 -50 -23 -97 -51 -46 -27 -86 -48 -89 -46 -2 3 10 17
28 33 17 16 41 39 53 51 21 21 93 63 109 63 13 0 89 51 83 57 -3 3 -25 -5 -50
-17 -59 -28 -75 -23 -43 15 24 29 70 105 63 105 -2 0 -21 -24 -42 -52z"/>
<path d="M1639 698 c8 -10 11 -31 9 -49 -5 -29 -4 -30 9 -14 18 26 16 39 -9
61 -18 15 -20 16 -9 2z"/>
<path d="M0 658 c0 -11 44 -20 71 -15 22 4 22 4 -3 6 -16 0 -28 5 -28 9 0 4
-9 8 -20 8 -11 0 -20 -4 -20 -8z"/>
<path d="M1064 622 c-1 -9 -4 -57 -8 -107 -4 -49 -3 -110 2 -135 6 -29 10 -36
11 -20 1 15 7 32 13 38 10 10 10 15 -2 22 -11 7 -11 10 -2 10 8 0 10 5 6 12
-4 6 -7 51 -6 99 1 48 -1 90 -6 93 -4 2 -8 -3 -8 -12z"/>
<path d="M150 605 c7 -8 17 -15 22 -15 5 0 16 -7 24 -15 26 -26 114 -12 114
19 0 20 -30 29 -36 11 -8 -19 -45 -19 -91 0 -19 8 -38 15 -40 15 -3 0 0 -7 7
-15z"/>
<path d="M60 591 c0 -5 14 -12 31 -16 34 -8 49 -32 28 -45 -7 -5 -10 -12 -6
-16 4 -4 -1 -12 -10 -19 -11 -9 -13 -14 -4 -19 11 -7 81 53 81 71 0 8 -92 53
-110 53 -5 0 -10 -4 -10 -9z"/>
<path d="M370 576 c0 -9 7 -12 19 -9 10 2 24 -1 32 -9 18 -17 66 -48 75 -48 3
0 1 7 -6 15 -7 8 -17 15 -22 15 -5 0 -24 10 -41 23 -39 27 -57 31 -57 13z"/>
<path d="M292 514 c-12 -8 -31 -16 -42 -17 -11 -1 -20 -5 -20 -9 0 -4 -6 -8
-13 -8 -12 0 -56 -32 -105 -78 -30 -29 -43 -16 -35 36 5 30 4 34 -10 29 -10
-4 -17 -2 -17 4 0 6 -6 9 -14 6 -7 -3 -19 0 -26 6 -7 7 -1 -5 13 -26 22 -33
24 -43 15 -74 -5 -19 -7 -46 -4 -58 3 -13 -3 -44 -14 -70 -23 -53 -27 -127 -7
-119 28 11 60 80 70 151 6 40 14 73 19 73 4 0 34 17 67 38 33 20 85 52 116 70
51 31 64 51 39 59 -5 2 -19 -4 -32 -13z"/>
<path d="M362 478 c3 -34 14 -67 30 -93 20 -31 27 -58 32 -118 6 -77 46 -200
81 -250 19 -27 20 -6 2 36 -41 97 -54 136 -46 148 6 11 12 10 27 -4 18 -16 20
-16 26 -2 4 10 1 15 -8 13 -8 -2 -24 8 -35 21 -23 26 -27 41 -10 41 12 0 6 25
-22 88 -11 23 -23 42 -28 42 -11 0 -24 57 -21 98 1 24 -3 32 -15 32 -15 0 -17
-8 -13 -52z"/>
<path d="M845 437 c3 -27 9 -56 15 -65 9 -14 10 -13 8 8 -1 14 1 31 6 38 5 8
2 18 -7 25 -8 7 -18 19 -21 27 -3 8 -4 -7 -1 -33z"/>
<path d="M2025 429 c-22 -21 -45 -39 -51 -39 -7 0 -14 -6 -16 -12 -4 -10 -11
-10 -29 -2 -17 8 -46 8 -104 -1 -44 -6 -91 -8 -105 -5 -14 4 -32 2 -41 -3 -9
-6 -25 -7 -35 -3 -18 7 -18 8 -1 18 10 5 24 7 32 4 7 -2 18 1 24 8 9 11 -10
13 -106 9 -65 -2 -130 -9 -145 -15 -15 -5 -43 -10 -62 -11 -20 -1 -36 -4 -36
-8 0 -14 37 -19 64 -9 41 15 64 12 88 -12 14 -14 19 -16 15 -6 -7 20 20 33 38
18 11 -9 332 -5 420 5 17 2 42 4 58 4 20 1 27 6 27 22 0 11 -4 17 -10 14 -5
-3 -10 1 -10 9 0 9 4 16 9 16 8 0 24 30 19 36 -2 1 -21 -15 -43 -37z"/>
<path d="M680 425 c-12 -23 -11 -27 18 -53 32 -29 41 -52 22 -52 -6 0 -22 11
-36 25 -14 14 -30 25 -37 25 -7 0 7 -17 31 -38 23 -20 42 -46 42 -57 1 -16 2
-17 9 -5 5 8 10 47 12 85 4 67 3 70 -18 68 -16 -2 -21 2 -17 12 10 25 -12 17
-26 -10z"/>
<path d="M2118 375 c-24 -19 -58 -45 -75 -57 -18 -13 -33 -29 -33 -36 0 -7 -7
-15 -15 -18 -21 -8 -19 -24 3 -24 11 -1 7 -6 -13 -17 -16 -9 -32 -19 -35 -23
-12 -18 -87 -50 -129 -55 -75 -10 -151 -35 -148 -47 1 -7 -5 -12 -13 -13 -8
-1 -14 -6 -12 -13 1 -7 -3 -12 -8 -12 -6 0 -31 -13 -58 -30 -32 -20 -41 -30
-27 -29 19 0 60 22 119 63 23 16 33 18 57 9 29 -11 46 -3 34 17 -3 6 1 10 9
10 9 0 16 4 16 8 0 5 14 9 31 10 17 0 41 8 54 16 14 9 35 16 49 16 34 0 60 11
47 20 -7 4 13 30 51 67 71 68 98 99 98 113 0 5 8 15 18 22 19 13 37 38 28 38
-2 0 -24 -16 -48 -35z"/>
<path d="M910 382 c0 -25 31 -72 47 -72 14 0 14 3 -4 23 -11 12 -25 31 -31 42
-6 11 -12 14 -12 7z"/>
<path d="M1257 310 c-3 -24 -4 -47 -1 -51 4 -7 69 12 80 24 4 4 18 7 31 7 24
0 28 7 14 28 -7 11 -11 11 -22 0 -8 -7 -19 -14 -24 -15 -6 -1 -18 -5 -27 -8
-13 -5 -21 1 -31 27 l-14 33 -6 -45z"/>
<path d="M1420 333 c-9 -7 -20 -9 -24 -6 -3 3 -6 1 -6 -5 0 -17 55 -15 70 3 7
8 16 13 20 10 5 -3 12 -1 15 5 9 15 -52 9 -75 -7z"/>
<path d="M2150 328 c0 -5 9 -22 20 -37 13 -20 17 -35 12 -52 -10 -31 -52 -99
-62 -99 -9 0 -35 -59 -28 -65 12 -12 71 65 107 141 23 47 41 89 41 95 0 13
-18 11 -22 -3 -3 -7 -12 -9 -22 -5 -9 4 -15 11 -12 16 3 5 -3 11 -14 14 -11 3
-20 1 -20 -5z"/>
<path d="M1630 309 c-19 -5 -45 -12 -56 -14 -12 -3 -35 -12 -50 -20 -16 -8
-36 -15 -44 -15 -8 0 -35 -7 -60 -16 -25 -9 -54 -17 -65 -18 -30 -4 -57 -17
-88 -43 -16 -13 -34 -23 -41 -23 -11 0 -46 -34 -46 -45 0 -14 37 -1 83 30 81
55 274 104 292 75 3 -5 15 -10 26 -10 10 0 19 -4 19 -8 0 -5 14 -7 30 -4 18 3
30 0 30 -7 0 -6 19 -11 45 -11 44 0 60 12 30 24 -8 3 -15 0 -15 -6 0 -7 -7 -5
-17 4 -10 9 -26 14 -35 13 -9 -2 -34 3 -55 10 -27 9 -38 19 -39 34 -1 12 5 21
12 21 23 0 29 1 39 10 6 4 35 8 66 9 53 0 83 -5 134 -24 17 -7 16 -5 -5 16
-20 19 -36 24 -90 26 -36 1 -81 -2 -100 -8z"/>
<path d="M1057 276 c-3 -7 -1 -19 4 -27 5 -8 9 -10 9 -6 0 4 9 3 20 -3 26 -14
25 -9 -4 23 -17 18 -26 22 -29 13z"/>
<path d="M2262 260 c-6 -11 -12 -28 -12 -37 0 -10 -10 -29 -23 -43 -12 -14
-32 -39 -44 -55 -12 -17 -51 -51 -87 -75 -36 -25 -61 -47 -55 -49 6 -2 14 0
18 5 12 17 51 34 76 34 14 0 25 5 25 10 0 6 7 10 15 10 8 0 15 5 15 11 0 13
19 32 49 48 17 10 21 18 17 37 -4 13 -3 24 1 24 5 0 14 9 21 21 11 17 11 23 0
37 -7 9 -8 13 -2 9 7 -4 14 2 17 13 7 26 -14 26 -31 0z"/>
<path d="M2056 191 c-38 -20 -63 -37 -55 -39 19 -3 96 31 129 58 40 31 3 22
-74 -19z"/>
<path d="M1477 183 c-4 -3 -25 -6 -47 -5 -44 2 -101 -18 -126 -43 -20 -20 -12
-19 28 4 20 11 49 17 73 16 37 -2 105 17 105 29 0 8 -25 7 -33 -1z"/>
<path d="M550 160 c8 -5 12 -10 7 -10 -9 0 20 -59 39 -78 8 -7 14 -18 14 -24
0 -6 3 -9 6 -5 8 8 -18 77 -29 77 -5 0 -4 7 3 15 16 19 8 27 -27 31 -21 2 -24
1 -13 -6z"/>
<path d="M736 153 c-3 -3 -6 -22 -5 -42 0 -33 1 -34 10 -13 5 13 7 28 4 32 -3
5 0 10 7 12 8 3 9 6 1 11 -5 4 -13 4 -17 0z"/>
<path d="M1074 119 c-10 -16 40 -59 57 -49 7 5 17 6 21 4 4 -3 8 0 8 6 0 6 -8
10 -17 9 -23 -4 -65 19 -58 32 4 5 4 9 1 9 -3 0 -8 -5 -12 -11z"/>
<path d="M1526 100 c-16 -10 -32 -22 -35 -27 -3 -4 -18 -14 -33 -22 -15 -8
-26 -19 -25 -24 1 -6 -3 -11 -10 -12 -21 0 -27 -15 -5 -15 11 0 33 11 47 24
14 13 41 32 60 41 19 9 35 20 35 25 0 6 14 10 30 10 41 0 38 16 -2 17 -18 1
-46 -7 -62 -17z"/>
<path d="M511 74 c7 -9 18 -25 24 -37 12 -24 41 -44 51 -35 3 4 -12 25 -36 48
-42 40 -64 54 -39 24z"/>
<path d="M957 78 c-3 -9 6 -13 24 -14 31 -1 39 10 13 20 -23 9 -31 7 -37 -6z"/>
<path d="M2025 48 c-16 -6 -41 -19 -54 -29 -23 -19 -23 -19 -2 -19 22 0 91 39
91 53 0 4 -1 7 -2 6 -2 0 -16 -5 -33 -11z"/>
</g>
</svg>
